<?xml version="1.0" encoding="UTF-8" standalone="no"?>
<svg
   xmlns:dc="http://purl.org/dc/elements/1.1/"
   xmlns:cc="http://creativecommons.org/ns#"
   xmlns:rdf="http://www.w3.org/1999/02/22-rdf-syntax-ns#"
   xmlns:svg="http://www.w3.org/2000/svg"
   xmlns="http://www.w3.org/2000/svg"
   xmlns:xlink="http://www.w3.org/1999/xlink"
   xmlns:sodipodi="http://sodipodi.sourceforge.net/DTD/sodipodi-0.dtd"
   xmlns:inkscape="http://www.inkscape.org/namespaces/inkscape"
   id="Layer_1"
   version="1.1"
   viewBox="0 0 256 256"
   xml:space="preserve"
   sodipodi:docname="Chameleon.svg"
   inkscape:version="0.92.4 (5da689c313, 2019-01-14)"
   width="256"
   height="256"
   inkscape:export-filename="C:\Users\ianma\Documents\GitHub\ianmtz\ianmtz\ianmtz\wwwroot\img\Chameleon\Icon.png"
   inkscape:export-xdpi="96"
   inkscape:export-ydpi="96"><metadata
     id="metadata51"><rdf:RDF><cc:Work
         rdf:about=""><dc:format>image/svg+xml</dc:format><dc:type
           rdf:resource="http://purl.org/dc/dcmitype/StillImage" /><dc:title /></cc:Work></rdf:RDF></metadata><defs
     id="defs49"><linearGradient
       id="linearGradient2511"
       inkscape:collect="always"><stop
         id="stop2501"
         offset="0"
         style="stop-color:#2a4e1f;stop-opacity:1" /><stop
         style="stop-color:#104a2a;stop-opacity:1"
         offset="0.19787188"
         id="stop2503" /><stop
         style="stop-color:#2ea264;stop-opacity:1"
         offset="0.47154731"
         id="stop2505" /><stop
         id="stop2507"
         offset="0.71397132"
         style="stop-color:#b1d649;stop-opacity:1" /><stop
         id="stop2509"
         offset="1"
         style="stop-color:#ecde5f;stop-opacity:1" /></linearGradient><linearGradient
       inkscape:collect="always"
       id="linearGradient870"><stop
         style="stop-color:#003a83;stop-opacity:1"
         offset="0"
         id="stop866" /><stop
         id="stop876"
         offset="0.37899441"
         style="stop-color:#3f65d5;stop-opacity:1;" /><stop
         id="stop874"
         offset="0.57380784"
         style="stop-color:#7f71d7;stop-opacity:1;" /><stop
         style="stop-color:#d6496c;stop-opacity:1"
         offset="0.79043418"
         id="stop2442" /><stop
         style="stop-color:#ff884c;stop-opacity:1"
         offset="1"
         id="stop868" /></linearGradient><filter
       style="color-interpolation-filters:sRGB"
       inkscape:label="Posterize Basic"
       id="filter3950"><feGaussianBlur
         stdDeviation="0.01"
         result="blur1"
         id="feGaussianBlur3938" /><feComponentTransfer
         in="blur1"
         result="component1"
         id="feComponentTransfer3946"><feFuncR
           type="discrete"
           tableValues="0 0.142857 0.285714 0.428571 0.571429 0.714286 0.857143 1 1"
           id="feFuncR3940" /><feFuncG
           type="discrete"
           tableValues="0 0.142857 0.285714 0.428571 0.571429 0.714286 0.857143 1 1"
           id="feFuncG3942" /><feFuncB
           type="discrete"
           tableValues="0 0.142857 0.285714 0.428571 0.571429 0.714286 0.857143 1 1"
           id="feFuncB3944" /></feComponentTransfer><feComposite
         in="component1"
         in2="SourceGraphic"
         operator="in"
         id="feComposite3948" /></filter><clipPath
       clipPathUnits="userSpaceOnUse"
       id="clipPath1231"><rect
         style="fill:url(#linearGradient1235);fill-opacity:1;stroke:#b03a18;stroke-width:1.87563872;stroke-linecap:round;stroke-miterlimit:10;stroke-dasharray:none;stroke-opacity:1;paint-order:stroke markers fill"
         id="rect1233"
         width="84.040321"
         height="84.040321"
         x="17.689373"
         y="18.256971"
         ry="13.502913" /></clipPath><linearGradient
       inkscape:collect="always"
       xlink:href="#linearGradient870"
       id="linearGradient1235"
       gradientUnits="userSpaceOnUse"
       gradientTransform="matrix(1.4178058,0,0,1.4178058,13.134432,-313.43721)"
       x1="4.9585099"
       y1="236.48366"
       x2="62.487591"
       y2="293.22388" /><filter
       style="color-interpolation-filters:sRGB"
       inkscape:label="Posterize Basic"
       id="filter3950-3"><feGaussianBlur
         stdDeviation="0.01"
         result="blur1"
         id="feGaussianBlur3938-5" /><feComponentTransfer
         in="blur1"
         result="component1"
         id="feComponentTransfer3946-5"><feFuncR
           type="discrete"
           tableValues="0 0.142857 0.285714 0.428571 0.571429 0.714286 0.857143 1 1"
           id="feFuncR3940-0" /><feFuncG
           type="discrete"
           tableValues="0 0.142857 0.285714 0.428571 0.571429 0.714286 0.857143 1 1"
           id="feFuncG3942-0" /><feFuncB
           type="discrete"
           tableValues="0 0.142857 0.285714 0.428571 0.571429 0.714286 0.857143 1 1"
           id="feFuncB3944-0" /></feComponentTransfer><feComposite
         in="component1"
         in2="SourceGraphic"
         operator="in"
         id="feComposite3948-3" /></filter><filter
       style="color-interpolation-filters:sRGB"
       inkscape:label="Posterize Basic"
       id="filter3950-6"><feGaussianBlur
         stdDeviation="0.01"
         result="blur1"
         id="feGaussianBlur3938-1" /><feComponentTransfer
         in="blur1"
         result="component1"
         id="feComponentTransfer3946-0"><feFuncR
           type="discrete"
           tableValues="0 0.142857 0.285714 0.428571 0.571429 0.714286 0.857143 1 1"
           id="feFuncR3940-06" /><feFuncG
           type="discrete"
           tableValues="0 0.142857 0.285714 0.428571 0.571429 0.714286 0.857143 1 1"
           id="feFuncG3942-7" /><feFuncB
           type="discrete"
           tableValues="0 0.142857 0.285714 0.428571 0.571429 0.714286 0.857143 1 1"
           id="feFuncB3944-8" /></feComponentTransfer><feComposite
         in="component1"
         in2="SourceGraphic"
         operator="in"
         id="feComposite3948-9" /></filter><linearGradient
       inkscape:collect="always"
       xlink:href="#linearGradient2511"
       id="linearGradient1184"
       gradientUnits="userSpaceOnUse"
       x1="97.476425"
       y1="202.38588"
       x2="94.105583"
       y2="55.945202" /><linearGradient
       inkscape:collect="always"
       xlink:href="#linearGradient870"
       id="linearGradient1198"
       gradientUnits="userSpaceOnUse"
       x1="30.493374"
       y1="83.606216"
       x2="175.46152"
       y2="83.606216" /></defs><sodipodi:namedview
     pagecolor="#ffffff"
     bordercolor="#666666"
     borderopacity="1"
     objecttolerance="10"
     gridtolerance="10"
     guidetolerance="10"
     inkscape:pageopacity="0"
     inkscape:pageshadow="2"
     inkscape:window-width="2880"
     inkscape:window-height="1706"
     id="namedview47"
     showgrid="false"
     inkscape:zoom="0.32593203"
     inkscape:cx="658.19989"
     inkscape:cy="-430.04891"
     inkscape:window-x="-11"
     inkscape:window-y="-11"
     inkscape:window-maximized="1"
     inkscape:current-layer="Layer_1" /><style
     type="text/css"
     id="style2">
	.st0{opacity:0.2;fill:#FFFFFF;}
	.st1{fill:#FFFFFF;}
	.st2{fill:none;stroke:#242C88;stroke-width:2;stroke-linecap:round;stroke-linejoin:round;stroke-miterlimit:10;}
	.st3{fill:#5E61A3;}
	.st4{opacity:0.5;fill:#242C88;}
	.st5{fill:#39C89A;}
	.st6{fill:#CAEAFB;}
	.st7{fill:#589FFF;}
	.st8{fill:#FF5751;}
	.st9{fill:#BC8D66;}
	.st10{opacity:0.7;fill:#FFFFFF;}
	.st11{fill:#F1C92A;}
	.st12{opacity:0.4;fill:none;stroke:#FFFFFF;stroke-width:2;stroke-linecap:round;stroke-linejoin:round;stroke-miterlimit:10;}
	.st13{fill:#F3877E;}
	.st14{fill:#83D689;}
	.st15{opacity:0.4;fill:#242C88;}
	.st16{opacity:0.2;fill:#242C88;}
	
		.st17{fill:none;stroke:#FFFFFF;stroke-width:3;stroke-linecap:round;stroke-linejoin:round;stroke-miterlimit:10;stroke-dasharray:0.1,6;}
	.st18{fill:#FFC408;}
	
		.st19{opacity:0.4;fill:none;stroke:#FFFFFF;stroke-width:3;stroke-linecap:round;stroke-linejoin:round;stroke-miterlimit:10;stroke-dasharray:0.1,6;}
	.st20{fill:none;stroke:#CAEAFB;stroke-width:12;stroke-linecap:round;stroke-miterlimit:10;}
	.st21{fill:none;stroke:#CAEAFB;stroke-width:7;stroke-linecap:round;stroke-miterlimit:10;}
	.st22{opacity:0.4;fill:none;stroke:#242C88;stroke-width:2;stroke-linecap:round;stroke-linejoin:round;stroke-miterlimit:10;}
	.st23{opacity:0.5;}
	.st24{fill:#242C88;}
	
		.st25{fill:none;stroke:#242C88;stroke-width:3;stroke-linecap:round;stroke-linejoin:round;stroke-miterlimit:10;stroke-dasharray:0.1,6;}
	.st26{opacity:0.5;fill:#FFFFFF;}
	.st27{fill:none;stroke:#FFFFFF;stroke-width:3;stroke-linecap:round;stroke-linejoin:round;stroke-miterlimit:10;}
	.st28{fill:none;stroke:#FFFFFF;stroke-width:2;stroke-linecap:round;stroke-linejoin:round;stroke-miterlimit:10;}
	.st29{fill:#E5BD9E;}
	.st30{fill:#A06D47;}
	
		.st31{opacity:0.3;fill:none;stroke:#FFFFFF;stroke-width:3;stroke-linecap:round;stroke-linejoin:round;stroke-miterlimit:10;stroke-dasharray:0.1,6;}
	.st32{opacity:0.1;fill:#242C88;}
	.st33{opacity:0.5;fill:#FF5751;}
	.st34{opacity:0.2;fill:none;stroke:#242C88;stroke-width:2;stroke-linecap:round;stroke-linejoin:round;stroke-miterlimit:10;}
	.st35{opacity:0.3;clip-path:url(#SVGID_2_);}
	
		.st36{fill:none;stroke:#FFFFFF;stroke-width:3;stroke-linecap:round;stroke-linejoin:round;stroke-miterlimit:10;stroke-dasharray:0,6;}
	
		.st37{opacity:0.3;fill:none;stroke:#FFFFFF;stroke-width:3;stroke-linecap:round;stroke-linejoin:round;stroke-miterlimit:10;stroke-dasharray:0,6;}
	.st38{clip-path:url(#SVGID_4_);}
	.st39{opacity:0.2;fill:none;stroke:#242C88;stroke-width:9;stroke-linecap:round;stroke-linejoin:round;stroke-miterlimit:10;}
	.st40{opacity:0.3;}
	.st41{opacity:0.4;fill:#FFFFFF;}
	.st42{opacity:0.5;fill:#CAEAFB;}
	.st43{opacity:0.6;fill:#242C88;}
	.st44{opacity:0.5;fill:none;stroke:#242C88;stroke-width:2;stroke-linecap:round;stroke-linejoin:round;stroke-miterlimit:10;}
	.st45{opacity:0.3;fill:#242C88;}
	.st46{opacity:0.2;}
	
		.st47{clip-path:url(#SVGID_6_);fill:none;stroke:#242C88;stroke-width:2;stroke-linecap:round;stroke-linejoin:round;stroke-miterlimit:10;}
	.st48{opacity:0.2;fill:none;stroke:#FFFFFF;stroke-width:8;stroke-linecap:round;stroke-linejoin:round;stroke-miterlimit:10;}
	.st49{clip-path:url(#SVGID_8_);fill:#FFFFFF;}
	
		.st50{clip-path:url(#SVGID_8_);fill:none;stroke:#242C88;stroke-width:2;stroke-linecap:round;stroke-linejoin:round;stroke-miterlimit:10;}
	.st51{opacity:0.2;clip-path:url(#SVGID_8_);fill:#242C88;}
	
		.st52{opacity:0.2;clip-path:url(#SVGID_8_);fill:none;stroke:#242C88;stroke-width:2;stroke-linecap:round;stroke-linejoin:round;stroke-miterlimit:10;}
	.st53{fill:none;stroke:#242C88;stroke-width:1.848;stroke-linecap:round;stroke-linejoin:round;stroke-miterlimit:10;}
	.st54{opacity:0.4;fill:none;stroke:#FFFFFF;stroke-width:7;stroke-linecap:round;stroke-linejoin:round;stroke-miterlimit:10;}
	.st55{opacity:0.2;fill:none;stroke:#242C88;stroke-width:7;stroke-linecap:round;stroke-linejoin:round;stroke-miterlimit:10;}
	.st56{opacity:7.000000e-02;fill:#242C88;}
	.st57{fill:none;stroke:#FFFFFF;stroke-width:4;stroke-linecap:round;stroke-linejoin:round;stroke-miterlimit:10;}
	.st58{opacity:0.4;fill:none;stroke:#FFFFFF;stroke-width:8;stroke-linecap:round;stroke-linejoin:round;stroke-miterlimit:10;}
	.st59{opacity:0.2;fill:none;stroke:#242C88;stroke-width:8;stroke-linecap:round;stroke-linejoin:round;stroke-miterlimit:10;}
	.st60{fill:none;stroke:#FF5751;stroke-width:4;stroke-linecap:round;stroke-linejoin:round;stroke-miterlimit:10;}
	.st61{fill:none;stroke:#242C88;stroke-width:4;stroke-linecap:round;stroke-linejoin:round;stroke-miterlimit:10;}
</style><g
     id="g2848"
     transform="translate(5.2639649,-4.195925)"><path
       id="path4"
       d="m 196.43881,115.57709 c 2.5531,4.19223 1.22548,9.65564 -2.96674,12.20874 l -98.640538,60.07294 c -4.192223,2.5531 -9.655633,1.22548 -12.208734,-2.96674 L 31.791848,101.42696 C 29.238752,97.234744 30.566367,91.771334 34.75859,89.218234 l 98.64054,-60.072946 c 4.19222,-2.553096 9.65563,-1.22548 12.20873,2.966737 z"
       inkscape:connector-curvature="0"
       style="fill:#4f5d73;stroke-width:4.44205189" /><path
       id="path6"
       d="m 82.622798,184.89203 c 0,0 2.067897,3.39551 4.620998,7.58774 l 4.620994,7.58773 c 2.553101,4.19222 8.016511,5.51984 12.20873,2.96674 l 26.55707,-16.17348 c 0,0 11.3816,-6.9315 18.31309,4.4501 9.65788,15.85836 11.61138,25.4711 11.9936,28.20808 0.0258,0.21312 0.0455,0.42481 0.0774,0.63943 0.01,0.11877 0.0166,0.19794 0.0166,0.19794 l 0.0266,-0.0162 c 0.40258,2.36053 1.21099,4.68714 2.53259,6.85723 5.59944,9.18666 17.5827,12.09828 26.77144,6.50226 9.18875,-5.59603 12.10059,-17.5789 6.50457,-26.76764 -1.32161,-2.17009 -3.01778,-3.95604 -4.93031,-5.39699 l 0.0266,-0.0162 c 0,0 -0.0673,-0.0423 -0.17057,-0.10936 -0.16991,-0.12537 -0.34666,-0.23617 -0.52421,-0.35689 -2.24796,-1.59032 -9.89836,-7.73879 -19.56086,-23.60475 0,0 -6.89357,-11.40469 4.4501,-18.31308 L 202.7143,142.9612 c 4.19222,-2.5531 5.51984,-8.01651 2.96674,-12.20873 l -4.621,-7.58774 c -2.5531,-4.19222 -4.621,-7.58773 -4.621,-7.58773 z"
       inkscape:connector-curvature="0"
       style="opacity:0.2;fill:#231f20;stroke-width:4.44205189" /><path
       id="path8"
       d="m 78.001799,177.30429 c 0,0 2.067897,3.39551 4.620999,7.58774 l 4.620998,7.58774 c 2.553096,4.19221 8.016507,5.51983 12.208729,2.96673 l 26.557065,-16.17348 c 0,0 11.3816,-6.9315 18.3131,4.45011 9.65787,15.85836 11.61138,25.47109 11.99359,28.20808 0.0258,0.21312 0.0455,0.42481 0.0773,0.63943 0.01,0.11877 0.0166,0.19794 0.0166,0.19794 l 0.0266,-0.0162 c 0.40257,2.36053 1.21098,4.68713 2.53258,6.85722 5.59944,9.18666 17.5827,12.09828 26.77144,6.50226 9.18875,-5.59603 12.10059,-17.57889 6.50457,-26.76764 -1.3216,-2.17009 -3.01777,-3.95603 -4.93031,-5.39698 l 0.0266,-0.0162 c 0,0 -0.0673,-0.0423 -0.17057,-0.10935 -0.1699,-0.12537 -0.34665,-0.23617 -0.5242,-0.35689 -2.24797,-1.59033 -9.89837,-7.7388 -19.56087,-23.60475 0,0 -6.89357,-11.4047 4.4501,-18.31309 l 26.55708,-16.17349 c 4.19221,-2.5531 5.51983,-8.01651 2.96673,-12.20873 l -4.621,-7.58773 c -2.5531,-4.19223 -4.621,-7.58774 -4.621,-7.58774 z"
       inkscape:connector-curvature="0"
       style="fill:#ab7e59;fill-opacity:1;stroke-width:4.44205189" /><rect
       transform="rotate(-31.341777)"
       id="rect10"
       y="178.67789"
       x="-25.603655"
       width="133.26157"
       height="26.652311"
       style="opacity:0.2;fill:#231f20;stroke-width:4.44205189" /><rect
       transform="rotate(-31.341777)"
       id="rect12"
       y="169.79378"
       x="-25.603655"
       width="133.26157"
       height="26.652311"
       style="fill:#ffffff;stroke-width:4.44205189" /><path
       id="path14"
       d="M 138.02013,36.733019 39.379583,96.805964 c -4.192222,2.5531 -5.519838,8.016506 -2.966736,12.208736 l 9.241987,15.17546 9.241992,15.17547 c 2.553101,4.19222 4.620999,7.58774 4.620999,7.58774 l 51.217205,-31.19172 c 3.14131,-1.91309 7.24345,-0.91628 9.15654,2.22504 1.9131,3.14133 6.01523,4.13815 9.15654,2.22506 3.14133,-1.91309 4.13816,-6.01523 2.22507,-9.15655 -1.9131,-3.14132 -0.91627,-7.24345 2.22505,-9.15654 3.14132,-1.913091 7.24345,-0.91628 9.15654,2.22505 l 6.9315,11.3816 c 1.91309,3.14132 6.01522,4.13814 9.15654,2.22505 3.14133,-1.9131 4.13815,-6.01522 2.22506,-9.15654 l -6.93149,-11.381608 c -1.9131,-3.141323 -0.91628,-7.243443 2.22506,-9.156541 3.14132,-1.913093 7.24344,-0.916272 9.15653,2.225051 l 2.3105,3.793873 c 1.91309,3.141314 6.01523,4.138139 9.15655,2.225046 3.14132,-1.913093 4.13815,-6.015227 2.22506,-9.156541 L 168.71283,70.050694 165.24709,64.3599 159.47084,54.875225 150.22886,39.699764 c -2.55311,-4.192225 -8.01652,-5.519842 -12.20873,-2.966745 z"
       inkscape:connector-curvature="0"
       style="opacity:0.2;fill:#231f20;stroke-width:4.44205189" /><path
       id="path16"
       d="m 137.57422,27.857422 c -1.43074,0.0709 -2.86571,0.489265 -4.17578,1.287109 L 34.757812,89.21875 c -4.192223,2.5531 -5.519897,8.016761 -2.966796,12.20898 l 9.242187,15.17383 9.242188,15.17578 4.621093,7.58789 51.216796,-31.1914 c 10e-4,-7.7e-4 0.003,-10e-4 0.004,-0.002 3.14082,-1.91 7.24197,-0.91351 9.15429,2.22656 1.91309,3.14133 6.01494,4.1377 9.15625,2.22461 3.14132,-1.91309 4.13771,-6.01493 2.22461,-9.15625 -1.91185,-3.1393 -0.91777,-7.237666 2.21875,-9.152347 0.002,-0.0012 0.004,-0.0027 0.006,-0.0039 0.002,-0.0012 0.004,-0.0027 0.006,-0.0039 3.14054,-1.908124 7.23853,-0.910788 9.15039,2.228515 l 6.93164,11.382812 c 1.91309,3.14132 6.01493,4.1377 9.15625,2.22461 3.14132,-1.9131 4.13966,-6.01494 2.22657,-9.15625 l -6.93164,-11.382812 c -1.91139,-3.13852 -0.91791,-7.235099 2.21679,-9.150391 0.003,-0.0017 0.005,-0.0042 0.008,-0.0059 0.003,-0.0018 0.007,-0.0021 0.01,-0.0039 3.14015,-1.905691 7.23523,-0.907844 9.14649,2.230469 l 2.31054,3.792969 c 1.91309,3.141323 6.01493,4.137701 9.15625,2.224609 3.14133,-1.913093 4.1377,-6.014928 2.22461,-9.15625 L 164.0918,62.462891 160.62695,56.771484 c -0.004,-0.0061 -0.008,-0.01151 -0.0117,-0.01758 l -5.76562,-9.466797 -9.24219,-15.175781 c -1.75525,-2.882153 -4.88558,-4.409888 -8.0332,-4.253906 z"
       style="fill:url(#linearGradient1184);fill-opacity:1;stroke-width:4.44205189"
       inkscape:connector-curvature="0" /></g><g
     style="fill:url(#linearGradient1198);fill-opacity:1"
     id="g32"
     transform="matrix(3.793867,-2.3104979,2.3104979,3.793867,-65.050857,87.591289)" /></svg>